<?xml version="1.0" standalone="no"?>
<!DOCTYPE svg PUBLIC "-//W3C//DTD SVG 20010904//EN"
 "http://www.w3.org/TR/2001/REC-SVG-20010904/DTD/svg10.dtd">
<svg version="1.0" xmlns="http://www.w3.org/2000/svg"
 width="1040.000000pt" height="1040.000000pt" viewBox="0 0 1040.000000 1040.000000"
 preserveAspectRatio="xMidYMid meet">

<g transform="translate(0.000000,1040.000000) scale(0.100000,-0.100000)"
fill="#000000" stroke="none">
<path d="M8445 6211 c-120 -58 -180 -152 -180 -286 0 -71 3 -86 31 -135 27
-49 70 -90 130 -126 18 -11 17 -16 -25 -98 -24 -48 -66 -112 -94 -142 -51 -56
-51 -56 -30 -73 129 -99 172 -131 181 -131 18 0 180 159 245 241 65 80 122
185 154 279 13 41 18 85 18 170 0 134 -12 165 -91 243 -91 90 -225 113 -339
58z m200 -32 c55 -16 107 -55 146 -112 28 -41 33 -58 37 -125 10 -187 -78
-374 -266 -559 -51 -51 -98 -93 -104 -93 -12 0 -118 77 -118 85 0 3 20 32 45
66 49 67 102 169 111 218 6 28 3 32 -29 46 -86 36 -157 136 -157 222 0 112 81
221 189 254 38 11 101 10 146 -2z"/>
<path d="M7800 6209 c-67 -10 -109 -31 -166 -82 -70 -63 -98 -128 -98 -227 0
-90 22 -147 83 -213 132 -143 365 -128 482 31 89 121 77 293 -28 397 -78 78
-169 109 -273 94z m123 -63 c103 -37 166 -117 174 -220 9 -107 -36 -192 -129
-246 -58 -32 -128 -40 -199 -20 -47 13 -124 81 -150 132 -99 195 100 426 304
354z"/>
<path d="M1140 5455 c-67 -17 -126 -41 -162 -66 -37 -26 -48 -24 -48 11 l0 30
-275 0 -275 0 0 -690 0 -690 275 0 275 0 0 398 c0 448 0 444 78 514 45 41 89
53 160 45 38 -4 53 -12 83 -45 21 -22 42 -57 48 -78 7 -25 11 -184 11 -437 l0
-397 273 2 272 3 0 490 0 490 -24 74 c-56 169 -188 279 -407 336 -83 21 -221
27 -284 10z m285 -60 c83 -21 193 -77 248 -125 66 -59 114 -160 127 -270 6
-48 9 -258 8 -485 l-3 -400 -222 -3 -223 -2 0 373 c0 429 -3 448 -73 521 -84
88 -207 87 -315 -1 -26 -22 -54 -57 -68 -87 -24 -51 -24 -53 -24 -428 l0 -378
-220 0 -220 0 0 635 0 635 220 0 220 0 0 -66 0 -66 53 47 c57 50 129 89 204
111 59 17 201 11 288 -11z"/>
<path d="M2420 5454 c-135 -29 -234 -81 -327 -173 -255 -251 -293 -673 -90
-974 73 -108 147 -172 262 -227 88 -41 137 -55 235 -65 121 -12 286 24 385 85
l34 21 3 -33 3 -33 273 -3 272 -2 0 690 0 690 -275 0 -275 0 0 -25 c0 -32 -4
-31 -82 5 -120 56 -283 73 -418 44z m345 -69 c44 -14 106 -44 137 -66 32 -21
60 -39 63 -39 3 0 5 23 5 50 l0 50 225 0 225 0 0 -635 0 -635 -220 0 -220 0 0
58 c0 32 -3 62 -6 65 -4 3 -28 -13 -55 -36 -202 -176 -554 -167 -767 19 -148
129 -224 311 -224 531 0 174 43 303 146 439 78 105 211 189 346 219 99 22 245
14 345 -20z"/>
<path d="M2585 5020 c-74 -29 -120 -72 -156 -145 -29 -60 -31 -70 -27 -147 7
-121 54 -199 153 -250 56 -29 167 -36 232 -14 197 65 258 338 110 487 -54 54
-116 81 -197 86 -48 2 -78 -2 -115 -17z m203 -56 c89 -37 136 -114 136 -224 1
-83 -19 -133 -71 -182 -59 -57 -189 -76 -268 -39 -82 37 -125 101 -133 198 -8
108 43 202 133 244 50 23 151 25 203 3z"/>
<path d="M4185 5460 c-95 -15 -193 -48 -290 -98 -72 -37 -108 -64 -181 -137
-136 -136 -191 -257 -201 -445 -11 -199 46 -371 167 -503 146 -159 305 -232
564 -258 396 -39 757 167 862 494 34 107 43 269 21 374 -57 268 -274 479 -567
553 -97 25 -280 34 -375 20z m370 -69 c199 -51 383 -191 465 -351 89 -175 90
-406 3 -590 -53 -113 -175 -230 -303 -292 -143 -70 -205 -83 -395 -82 -168 0
-228 10 -345 56 -185 73 -327 218 -385 393 -41 124 -40 311 3 438 75 223 313
404 587 447 92 14 278 4 370 -19z"/>
<path d="M4216 5016 c-103 -43 -157 -113 -175 -223 -16 -101 18 -215 81 -268
67 -56 107 -70 203 -70 102 0 147 17 211 82 107 107 105 310 -4 416 -88 85
-208 109 -316 63z m212 -55 c95 -48 136 -127 131 -244 -4 -62 -9 -81 -33 -116
-16 -23 -50 -54 -75 -69 -40 -24 -57 -27 -132 -27 -75 0 -90 3 -125 26 -22 14
-53 46 -69 69 -28 40 -30 49 -30 135 0 84 2 95 30 140 42 68 113 105 202 105
43 0 76 -6 101 -19z"/>
<path d="M5920 5450 c-41 -11 -97 -34 -123 -50 -60 -37 -67 -37 -67 0 l0 30
-275 0 -275 0 2 -687 3 -688 273 -3 272 -2 0 407 c0 265 4 422 11 447 6 22 25
52 41 68 27 25 38 28 95 28 79 0 116 -19 146 -75 21 -39 22 -52 25 -458 l3
-417 272 2 272 3 5 430 c4 317 8 436 17 452 26 45 62 63 127 63 77 0 120 -24
146 -83 18 -39 20 -69 20 -454 l0 -413 275 0 275 0 0 478 c0 298 -4 501 -11
538 -41 225 -226 377 -486 399 -146 13 -283 -34 -407 -139 l-63 -54 -47 48
c-118 120 -350 177 -526 130z m252 -45 c125 -26 233 -92 295 -180 l21 -29 70
65 c126 116 253 167 393 155 250 -21 414 -155 448 -366 7 -38 11 -247 11 -502
l0 -438 -225 0 -225 0 0 393 c0 363 -2 395 -19 434 -22 48 -69 93 -114 110
-83 30 -194 4 -237 -57 -47 -66 -50 -98 -50 -502 l0 -378 -220 0 -219 0 -3
398 c-3 387 -4 398 -25 438 -45 83 -116 120 -215 111 -74 -7 -119 -36 -150
-97 -23 -45 -23 -49 -26 -447 l-3 -403 -219 0 -220 0 0 635 0 635 220 0 220 0
0 -66 0 -66 53 47 c123 108 272 146 439 110z"/>
<path d="M9397 5459 c-69 -8 -177 -39 -232 -66 -55 -28 -136 -96 -166 -140
-81 -117 -97 -298 -37 -423 47 -97 172 -193 343 -261 153 -60 176 -79 140
-109 -44 -37 -239 32 -337 119 -25 22 -49 41 -52 41 -3 0 -58 -88 -122 -196
l-116 -196 43 -39 c142 -125 396 -192 638 -169 134 13 207 31 297 75 172 84
262 265 233 470 -27 196 -160 317 -444 404 -114 34 -149 55 -125 71 41 27 210
-5 319 -59 l61 -31 95 190 c52 104 95 192 95 195 0 12 -149 76 -220 94 -145
37 -276 46 -413 30z m258 -49 c39 -6 99 -18 135 -27 67 -16 170 -57 170 -68 0
-9 -140 -285 -144 -285 -3 0 -38 13 -79 30 -123 49 -293 56 -324 13 -20 -26
-15 -61 10 -87 13 -13 66 -36 127 -56 205 -65 313 -129 375 -223 45 -68 58
-127 53 -234 -13 -259 -179 -384 -533 -400 -149 -7 -249 9 -374 57 -76 30
-181 95 -181 112 0 13 171 298 179 298 3 0 27 -15 53 -33 64 -46 182 -99 234
-105 97 -11 154 20 154 83 0 50 -28 73 -150 119 -202 79 -329 178 -365 287
-25 75 -17 206 16 279 85 182 352 282 644 240z"/>
<path d="M7570 4740 l0 -690 273 2 272 3 2 688 2 687 -274 0 -275 0 0 -690z
m490 5 l0 -635 -220 0 -220 0 0 635 0 635 220 0 220 0 0 -635z"/>
<path d="M5174 3619 c-17 -19 -19 -42 -22 -273 -2 -154 1 -263 7 -279 13 -34
55 -46 91 -25 23 13 31 13 51 2 13 -7 49 -13 79 -13 113 -1 191 82 198 211 5
87 -15 144 -68 192 -58 53 -123 67 -192 42 l-38 -14 0 67 c0 58 -3 71 -23 89
-29 28 -59 28 -83 1z m74 -111 c1 -54 5 -98 7 -98 2 0 21 12 42 26 32 22 46
25 90 22 90 -8 150 -68 168 -170 18 -96 -46 -204 -134 -228 -49 -13 -120 0
-142 26 -15 18 -29 18 -29 -1 0 -21 -31 -35 -52 -24 -17 9 -18 31 -18 273 0
144 3 266 7 270 4 4 19 6 33 4 25 -3 25 -4 28 -100z"/>
<path d="M5289 3359 c-102 -109 16 -296 139 -219 60 37 77 112 42 188 -21 47
-48 62 -112 62 -32 0 -46 -6 -69 -31z m115 1 c32 -12 56 -58 56 -109 0 -89
-94 -135 -154 -75 -22 22 -26 36 -26 81 0 47 4 59 29 84 31 31 53 35 95 19z"/>
<path d="M2285 3478 c-16 -6 -35 -15 -42 -20 -8 -7 -18 -5 -28 6 -22 21 -48
20 -76 -3 -24 -19 -24 -22 -24 -206 0 -184 0 -187 24 -206 31 -25 47 -24 76 6
24 23 25 30 25 149 0 123 0 125 26 145 31 24 62 27 89 7 17 -12 20 -31 25
-155 3 -90 9 -144 17 -152 7 -7 27 -12 44 -12 53 0 59 19 59 182 0 179 -14
220 -82 251 -47 22 -87 24 -133 8z m125 -33 c50 -26 63 -65 68 -211 5 -139 -3
-174 -38 -174 -32 0 -40 33 -40 158 0 106 -2 122 -21 146 -16 20 -29 26 -60
26 -42 0 -82 -20 -95 -48 -4 -9 -10 -75 -13 -147 l-6 -130 -27 -3 c-37 -4 -39
9 -36 213 l3 170 30 0 c24 0 31 -5 33 -23 3 -21 5 -22 20 -9 51 47 128 60 182
32z"/>
<path d="M4159 3481 c-14 -5 -35 -14 -47 -20 -18 -10 -25 -9 -38 4 -22 22 -51
19 -80 -10 l-25 -25 3 -180 c3 -191 5 -200 55 -215 17 -4 29 1 48 19 24 24 25
30 25 149 0 136 5 149 62 159 55 10 62 -6 68 -161 3 -90 9 -144 17 -152 19
-19 74 -15 89 6 10 13 14 52 14 131 0 62 4 124 9 137 11 27 58 48 90 40 27 -7
30 -22 33 -171 3 -116 4 -125 27 -143 31 -25 47 -24 78 7 25 25 25 26 22 172
-4 125 -7 152 -24 181 -37 62 -73 78 -166 73 -14 -1 -43 -14 -64 -28 -37 -25
-38 -25 -59 -6 -11 11 -39 25 -61 31 -45 12 -41 12 -76 2z m96 -35 c19 -8 40
-26 46 -40 l12 -26 37 34 c79 71 173 57 219 -31 7 -13 11 -79 11 -168 0 -126
-2 -146 -16 -152 -9 -3 -24 -2 -33 4 -13 8 -17 36 -21 147 -5 130 -6 139 -29
157 -36 29 -87 25 -122 -10 -29 -29 -29 -31 -29 -146 0 -64 -5 -125 -10 -136
-12 -21 -45 -25 -57 -6 -4 6 -10 74 -13 149 -4 122 -7 139 -25 152 -24 18 -84
20 -105 3 -40 -33 -45 -49 -50 -181 -4 -116 -7 -131 -23 -134 -42 -8 -47 11
-47 192 0 94 4 177 9 184 14 22 56 10 59 -16 3 -21 5 -22 20 -9 51 46 108 57
167 33z"/>
<path d="M6225 3475 c-89 -34 -139 -113 -139 -221 1 -60 5 -80 28 -118 39 -66
93 -99 171 -104 72 -5 123 9 165 45 37 31 40 75 8 97 -30 21 -45 20 -75 -4
-35 -28 -111 -27 -141 0 -12 12 -22 25 -22 30 0 6 49 10 118 10 151 0 166 8
160 86 -11 130 -153 224 -273 179z m150 -36 c63 -30 117 -126 100 -180 -6 -18
-17 -19 -151 -19 l-145 0 6 -22 c25 -87 117 -124 193 -78 68 41 110 9 54 -41
-122 -109 -321 -15 -322 152 -1 158 131 251 265 188z"/>
<path d="M6222 3365 c-16 -14 -32 -34 -35 -45 -5 -19 0 -20 104 -20 123 0 133
8 80 61 -39 39 -105 41 -149 4z m113 -7 c42 -19 29 -28 -40 -28 -66 0 -85 13
-42 30 31 12 52 12 82 -2z"/>
<path d="M7187 3471 c-35 -18 -40 -18 -69 -3 -28 13 -35 13 -57 1 l-26 -15 -3
-195 c-3 -216 -1 -222 59 -222 49 0 58 24 59 151 0 81 4 121 15 142 16 30 53
47 81 36 8 -3 28 1 45 9 21 12 29 23 29 43 0 35 -9 48 -43 61 -38 15 -47 14
-90 -8z m104 -27 c23 -28 -1 -49 -55 -49 -41 0 -52 -5 -77 -33 -31 -34 -31
-38 -34 -222 -1 -63 -8 -80 -34 -80 -37 0 -41 19 -41 195 0 120 4 175 12 183
20 20 48 14 60 -13 11 -25 12 -25 32 -7 48 44 112 56 137 26z"/>
<path d="M7929 3481 c-71 -23 -109 -72 -109 -140 0 -59 40 -101 127 -130 74
-26 99 -43 89 -60 -14 -22 -81 -12 -122 19 -46 35 -63 37 -92 10 -28 -26 -28
-50 0 -85 66 -84 249 -88 307 -6 32 45 35 86 10 137 -23 48 -35 56 -141 91
-62 21 -72 46 -20 51 20 2 45 -5 68 -18 61 -38 119 -1 94 59 -22 53 -142 94
-211 72z m129 -37 c40 -15 70 -53 58 -73 -8 -13 -56 -15 -56 -3 0 5 -11 14
-25 20 -48 22 -106 11 -119 -23 -12 -31 13 -54 84 -76 95 -31 121 -53 127
-110 4 -38 1 -50 -22 -77 -57 -67 -195 -64 -258 6 -22 24 -19 55 5 60 10 2 33
-8 52 -23 66 -50 156 -42 156 14 0 36 -9 43 -90 70 -84 27 -106 43 -120 86
-10 30 -9 41 7 73 32 66 118 90 201 56z"/>
<path d="M3070 3460 c-21 -21 -22 -29 -18 -168 2 -125 6 -152 23 -181 29 -49
94 -81 164 -81 67 0 113 22 156 74 30 38 30 38 33 186 4 144 3 148 -20 169
-24 23 -61 22 -84 -2 -7 -7 -14 -65 -17 -145 -3 -85 -10 -138 -18 -148 -8 -10
-26 -14 -53 -12 -57 4 -66 26 -66 169 0 125 -6 143 -52 154 -19 5 -32 1 -48
-15z m70 -29 c5 -11 10 -71 10 -135 0 -63 3 -122 6 -131 8 -19 55 -45 83 -45
29 0 69 20 78 39 4 9 10 74 13 145 4 104 8 131 21 139 9 6 24 7 33 4 14 -6 16
-26 16 -149 0 -167 -11 -196 -83 -228 -56 -26 -103 -25 -157 3 -68 34 -79 61
-83 207 -2 69 0 135 4 148 10 27 44 29 59 3z"/>
</g>
</svg>
